<?xml version="1.0" encoding="iso-8859-1"?>
<!-- Generator: Adobe Illustrator 16.0.0, SVG Export Plug-In . SVG Version: 6.00 Build 0)  -->
<!DOCTYPE svg PUBLIC "-//W3C//DTD SVG 1.1//EN" "http://www.w3.org/Graphics/SVG/1.1/DTD/svg11.dtd">
<svg version="1.1" id="Capa_1" xmlns="http://www.w3.org/2000/svg" xmlns:xlink="http://www.w3.org/1999/xlink" x="0px" y="0px"
	 width="517.446px" height="517.446px" viewBox="0 0 517.446 517.446" style="enable-background:new 0 0 517.446 517.446;"
	 xml:space="preserve">
<g>
	<g>
		<path d="M258.313,517.446l1.512-0.173c180.597-72.904,249.342-241.061,169.811-313.965c-14.048-12.88-28.458-20.311-42.658-23.944
			v-50.461C386.968,57.824,329.144,0,257.683,0C186.604,0,128.78,57.824,128.78,128.902v50.873
			c-13.712,3.777-27.588,11.112-41.128,23.533C8.121,276.213,77.707,444.541,258.313,517.446z M263.803,411.188h-5.738h-0.383
			h-35.802l2.372-4.552l13.617-26.125l4.973-9.533l5.479-10.52c-10.94-4.924-18.58-15.864-18.58-28.63
			c0-17.365,14.076-31.441,31.442-31.441c17.365,0,31.441,14.076,31.441,31.441c0,11.112-5.795,20.827-14.496,26.412l6.636,12.737
			l3.558,6.827l13.358,25.618l4.035,7.765H263.803z M157.468,128.902c0-55.262,44.953-100.215,100.598-100.215
			c55.262,0,100.215,44.953,100.215,100.215v47.937c-54.324,3.825-99.307,52.661-99.307,52.661h-0.66
			c0,0-45.833-49.763-100.846-52.766V128.902L157.468,128.902z"/>
	</g>
</g>
<g>
</g>
<g>
</g>
<g>
</g>
<g>
</g>
<g>
</g>
<g>
</g>
<g>
</g>
<g>
</g>
<g>
</g>
<g>
</g>
<g>
</g>
<g>
</g>
<g>
</g>
<g>
</g>
<g>
</g>
</svg>
